<svg width="106" height="85" viewBox="0 0 106 85" fill="none" xmlns="http://www.w3.org/2000/svg">
<path d="M52.4545 32.9091H39.6364C39.5455 31.8485 39.303 30.8864 38.9091 30.0227C38.5303 29.1591 38 28.4167 37.3182 27.7955C36.6515 27.1591 35.8409 26.6742 34.8864 26.3409C33.9318 25.9924 32.8485 25.8182 31.6364 25.8182C29.5152 25.8182 27.7197 26.3333 26.25 27.3636C24.7955 28.3939 23.6894 29.8712 22.9318 31.7955C22.1894 33.7197 21.8182 36.0303 21.8182 38.7273C21.8182 41.5758 22.197 43.9621 22.9545 45.8864C23.7273 47.7955 24.8409 49.2348 26.2955 50.2045C27.75 51.1591 29.5 51.6364 31.5455 51.6364C32.7121 51.6364 33.7576 51.4924 34.6818 51.2045C35.6061 50.9015 36.4091 50.4697 37.0909 49.9091C37.7727 49.3485 38.3258 48.6742 38.75 47.8864C39.1894 47.0833 39.4848 46.1818 39.6364 45.1818L52.4545 45.2727C52.303 47.2424 51.75 49.25 50.7955 51.2955C49.8409 53.3258 48.4848 55.2045 46.7273 56.9318C44.9848 58.6439 42.8258 60.0227 40.25 61.0682C37.6742 62.1136 34.6818 62.6364 31.2727 62.6364C27 62.6364 23.1667 61.7197 19.7727 59.8864C16.3939 58.053 13.7197 55.3561 11.75 51.7955C9.79545 48.2348 8.81818 43.8788 8.81818 38.7273C8.81818 33.5455 9.81818 29.1818 11.8182 25.6364C13.8182 22.0758 16.5152 19.3864 19.9091 17.5682C23.303 15.7348 27.0909 14.8182 31.2727 14.8182C34.2121 14.8182 36.9167 15.2197 39.3864 16.0227C41.8561 16.8258 44.0227 18 45.8864 19.5455C47.75 21.0758 49.25 22.9621 50.3864 25.2045C51.5227 27.447 52.2121 30.0152 52.4545 32.9091ZM56.9148 25.6364V15.4545H97.3693V25.6364H83.3693V62H70.9148V25.6364H56.9148Z" fill="white"/>
<path d="M9.43608 76.0909H6.83239C6.81392 75.8755 6.76468 75.68 6.68466 75.5046C6.60772 75.3292 6.5 75.1784 6.36151 75.0522C6.22609 74.9229 6.06143 74.8245 5.86754 74.7567C5.67365 74.686 5.4536 74.6506 5.20739 74.6506C4.77652 74.6506 4.41181 74.7552 4.11328 74.9645C3.81783 75.1738 3.59316 75.4738 3.43928 75.8647C3.28847 76.2556 3.21307 76.7249 3.21307 77.2727C3.21307 77.8513 3.29001 78.3361 3.44389 78.7269C3.60085 79.1147 3.82706 79.4071 4.12251 79.604C4.41797 79.7979 4.77344 79.8949 5.18892 79.8949C5.4259 79.8949 5.63826 79.8656 5.82599 79.8072C6.01373 79.7456 6.17685 79.6579 6.31534 79.544C6.45384 79.4302 6.56617 79.2932 6.65234 79.1332C6.7416 78.9701 6.80161 78.7869 6.83239 78.5838L9.43608 78.6023C9.4053 79.0024 9.29297 79.4102 9.09908 79.8256C8.90518 80.238 8.62973 80.6197 8.27273 80.9705C7.9188 81.3183 7.48023 81.5984 6.95703 81.8107C6.43383 82.0231 5.82599 82.1293 5.13352 82.1293C4.26562 82.1293 3.48698 81.9431 2.79759 81.5707C2.11127 81.1983 1.56806 80.6504 1.16797 79.9272C0.770952 79.204 0.572443 78.3191 0.572443 77.2727C0.572443 76.2202 0.775568 75.3338 1.18182 74.6136C1.58807 73.8904 2.13589 73.3441 2.82528 72.9748C3.51468 72.6024 4.28409 72.4162 5.13352 72.4162C5.73059 72.4162 6.27995 72.4978 6.78161 72.6609C7.28326 72.824 7.72337 73.0625 8.10192 73.3764C8.48047 73.6873 8.78516 74.0704 9.01598 74.5259C9.2468 74.9814 9.38684 75.5031 9.43608 76.0909ZM10.6375 82V74.9091H13.1119V76.2571H13.1858C13.3151 75.7585 13.5197 75.3938 13.7998 75.163C14.0829 74.9322 14.4138 74.8168 14.7923 74.8168C14.9031 74.8168 15.0124 74.826 15.1201 74.8445C15.2309 74.8598 15.3371 74.8829 15.4387 74.9137V77.0881C15.3125 77.045 15.157 77.0127 14.9724 76.9911C14.7877 76.9696 14.6292 76.9588 14.4969 76.9588C14.2476 76.9588 14.0229 77.0157 13.8229 77.1296C13.6259 77.2404 13.4705 77.3974 13.3566 77.6005C13.2427 77.8005 13.1858 78.036 13.1858 78.3068V82H10.6375ZM18.0412 84.6591C17.7488 84.6591 17.4703 84.636 17.2056 84.5898C16.9409 84.5468 16.7086 84.4867 16.5085 84.4098L17.0625 82.6001C17.2718 82.674 17.4626 82.7217 17.6349 82.7433C17.8104 82.7648 17.9596 82.7525 18.0827 82.7063C18.2089 82.6602 18.2997 82.5724 18.3551 82.4432L18.4105 82.3139L15.9176 74.9091H18.5767L19.7216 79.821H19.7955L20.9588 74.9091H23.6364L21.0511 82.5909C20.9219 82.9818 20.7341 83.3326 20.4879 83.6435C20.2448 83.9574 19.9247 84.2051 19.5277 84.3867C19.1307 84.5683 18.6352 84.6591 18.0412 84.6591ZM24.3612 84.6591V74.9091H26.891V76.1463H26.9464C27.0387 75.9062 27.1741 75.6862 27.3526 75.4862C27.5311 75.283 27.7527 75.1214 28.0174 75.0014C28.2821 74.8783 28.5898 74.8168 28.9407 74.8168C29.4085 74.8168 29.8532 74.9414 30.2749 75.1907C30.6996 75.44 31.0443 75.8324 31.3089 76.3679C31.5767 76.9034 31.7106 77.599 31.7106 78.4545C31.7106 79.2732 31.5829 79.9518 31.3274 80.4904C31.075 81.029 30.7365 81.4306 30.3118 81.6953C29.8902 81.96 29.427 82.0923 28.9222 82.0923C28.5898 82.0923 28.2929 82.0385 28.0312 81.9308C27.7727 81.82 27.5511 81.6707 27.3665 81.483C27.1849 81.2921 27.0449 81.0767 26.9464 80.8366H26.9094V84.6591H24.3612ZM26.854 78.4545C26.854 78.7992 26.8987 79.0978 26.9879 79.3501C27.0803 79.5994 27.2095 79.7933 27.3757 79.9318C27.545 80.0672 27.7466 80.1349 27.9805 80.1349C28.2144 80.1349 28.4129 80.0688 28.576 79.9364C28.7422 79.801 28.8684 79.6087 28.9545 79.3594C29.0438 79.107 29.0884 78.8054 29.0884 78.4545C29.0884 78.1037 29.0438 77.8036 28.9545 77.5543C28.8684 77.302 28.7422 77.1096 28.576 76.9773C28.4129 76.8419 28.2144 76.7741 27.9805 76.7741C27.7466 76.7741 27.545 76.8419 27.3757 76.9773C27.2095 77.1096 27.0803 77.302 26.9879 77.5543C26.8987 77.8036 26.854 78.1037 26.854 78.4545ZM37.0068 74.9091V76.7557H32.335V74.9091H37.0068ZM33.2398 73.2102H35.7881V79.7195C35.7881 79.8179 35.805 79.901 35.8389 79.9688C35.8727 80.0334 35.925 80.0826 35.9958 80.1165C36.0666 80.1473 36.1574 80.1626 36.2682 80.1626C36.3451 80.1626 36.4344 80.1534 36.536 80.1349C36.6406 80.1165 36.7175 80.1011 36.7668 80.0888L37.1361 81.88C37.0222 81.9138 36.8591 81.9554 36.6468 82.0046C36.4375 82.0539 36.1882 82.0862 35.8989 82.1016C35.3141 82.1323 34.8232 82.0723 34.4262 81.9215C34.0292 81.7676 33.7307 81.526 33.5306 81.1967C33.3306 80.8674 33.2336 80.455 33.2398 79.9595V73.2102ZM41.3867 82.1293C40.6173 82.1293 39.9587 81.9769 39.4109 81.6722C38.863 81.3645 38.4429 80.9367 38.1506 80.3888C37.8582 79.8379 37.712 79.1993 37.712 78.473C37.712 77.7467 37.8582 77.1096 38.1506 76.5618C38.4429 76.0109 38.863 75.5831 39.4109 75.2784C39.9587 74.9706 40.6173 74.8168 41.3867 74.8168C42.1561 74.8168 42.8147 74.9706 43.3626 75.2784C43.9104 75.5831 44.3305 76.0109 44.6229 76.5618C44.9152 77.1096 45.0614 77.7467 45.0614 78.473C45.0614 79.1993 44.9152 79.8379 44.6229 80.3888C44.3305 80.9367 43.9104 81.3645 43.3626 81.6722C42.8147 81.9769 42.1561 82.1293 41.3867 82.1293ZM41.4052 80.2457C41.6206 80.2457 41.8068 80.1734 41.9638 80.0288C42.1207 79.8841 42.2423 79.6779 42.3285 79.4102C42.4147 79.1424 42.4577 78.8239 42.4577 78.4545C42.4577 78.0821 42.4147 77.7636 42.3285 77.4989C42.2423 77.2312 42.1207 77.025 41.9638 76.8803C41.8068 76.7357 41.6206 76.6634 41.4052 76.6634C41.1774 76.6634 40.982 76.7357 40.8189 76.8803C40.6558 77.025 40.5311 77.2312 40.445 77.4989C40.3588 77.7636 40.3157 78.0821 40.3157 78.4545C40.3157 78.8239 40.3588 79.1424 40.445 79.4102C40.5311 79.6779 40.6558 79.8841 40.8189 80.0288C40.982 80.1734 41.1774 80.2457 41.4052 80.2457ZM48.3899 74.6136V72.5455H56.6072V74.6136H53.7635V82H51.2337V74.6136H48.3899ZM56.8738 82V74.9091H59.3483V76.2571H59.4221C59.5514 75.7585 59.7561 75.3938 60.0361 75.163C60.3193 74.9322 60.6501 74.8168 61.0287 74.8168C61.1395 74.8168 61.2487 74.826 61.3564 74.8445C61.4672 74.8598 61.5734 74.8829 61.675 74.9137V77.0881C61.5488 77.045 61.3934 77.0127 61.2087 76.9911C61.0241 76.9696 60.8656 76.9588 60.7332 76.9588C60.4839 76.9588 60.2593 77.0157 60.0592 77.1296C59.8622 77.2404 59.7068 77.3974 59.593 77.6005C59.4791 77.8005 59.4221 78.036 59.4221 78.3068V82H56.8738ZM64.1563 82.1108C63.7039 82.1108 63.3038 82.0369 62.9561 81.8892C62.6114 81.7384 62.3405 81.5107 62.1436 81.206C61.9466 80.9013 61.8481 80.5135 61.8481 80.0426C61.8481 79.6548 61.9143 79.324 62.0466 79.0501C62.1789 78.7731 62.3636 78.5469 62.6006 78.3714C62.8376 78.196 63.113 78.0621 63.4269 77.9698C63.7439 77.8775 64.0856 77.8175 64.4518 77.7898C64.8488 77.759 65.1673 77.7221 65.4074 77.679C65.6505 77.6328 65.826 77.5697 65.9337 77.4897C66.0414 77.4066 66.0953 77.2973 66.0953 77.1619V77.1435C66.0953 76.9588 66.0245 76.8172 65.8829 76.7188C65.7413 76.6203 65.5597 76.571 65.3382 76.571C65.095 76.571 64.8965 76.6249 64.7426 76.7326C64.5918 76.8372 64.501 76.9988 64.4703 77.2173H62.1251C62.1559 76.7865 62.2928 76.3894 62.536 76.0263C62.7822 75.66 63.1407 75.3677 63.6116 75.1491C64.0825 74.9276 64.6703 74.8168 65.3751 74.8168C65.8829 74.8168 66.3384 74.8768 66.7416 74.9968C67.1447 75.1138 67.4879 75.2784 67.771 75.4908C68.0542 75.7 68.2696 75.9463 68.4173 76.2294C68.5682 76.5095 68.6436 76.8142 68.6436 77.1435V82H66.2615V81.0028H66.2061C66.0645 81.2675 65.8921 81.4814 65.689 81.6445C65.489 81.8076 65.2597 81.9261 65.0012 82C64.7457 82.0739 64.4641 82.1108 64.1563 82.1108ZM64.9873 80.5043C65.1812 80.5043 65.3628 80.4643 65.532 80.3842C65.7044 80.3042 65.8444 80.1888 65.9521 80.038C66.0599 79.8872 66.1137 79.7041 66.1137 79.4886V78.8977C66.046 78.9254 65.9737 78.9516 65.8968 78.9762C65.8229 79.0008 65.7429 79.0239 65.6567 79.0455C65.5736 79.067 65.4843 79.087 65.3889 79.1055C65.2966 79.1239 65.1997 79.1409 65.0981 79.1562C64.9011 79.187 64.7396 79.2378 64.6134 79.3086C64.4903 79.3763 64.3979 79.4609 64.3364 79.5625C64.2779 79.661 64.2487 79.7718 64.2487 79.8949C64.2487 80.0919 64.3179 80.2427 64.4564 80.3473C64.5949 80.4519 64.7719 80.5043 64.9873 80.5043ZM73.2773 82.1293C72.5079 82.1293 71.8493 81.9769 71.3015 81.6722C70.7537 81.3645 70.3336 80.9367 70.0412 80.3888C69.7488 79.8379 69.6026 79.1993 69.6026 78.473C69.6026 77.7467 69.7488 77.1096 70.0412 76.5618C70.3336 76.0109 70.7537 75.5831 71.3015 75.2784C71.8493 74.9706 72.5079 74.8168 73.2773 74.8168C73.9729 74.8168 74.5746 74.9429 75.0824 75.1953C75.5933 75.4446 75.9888 75.7985 76.2688 76.2571C76.5489 76.7126 76.6905 77.2481 76.6935 77.8636H74.3299C74.296 77.4912 74.1883 77.2081 74.0067 77.0142C73.8282 76.8172 73.5974 76.7188 73.3143 76.7188C73.0927 76.7188 72.8988 76.7834 72.7326 76.9126C72.5664 77.0388 72.4371 77.2312 72.3448 77.4897C72.2525 77.7451 72.2063 78.0668 72.2063 78.4545C72.2063 78.8423 72.2525 79.1655 72.3448 79.424C72.4371 79.6795 72.5664 79.8718 72.7326 80.0011C72.8988 80.1272 73.0927 80.1903 73.3143 80.1903C73.502 80.1903 73.6682 80.1473 73.8129 80.0611C73.9575 79.9718 74.0745 79.8426 74.1637 79.6733C74.256 79.5009 74.3114 79.2917 74.3299 79.0455H76.6935C76.6843 79.6702 76.5412 80.215 76.2642 80.6797C75.9872 81.1413 75.5948 81.4983 75.087 81.7507C74.5823 82.0031 73.979 82.1293 73.2773 82.1293ZM80.0347 80.3196L80.0532 77.2912H80.3856L82.1029 74.9091H84.9651L82.0844 78.6207H81.3643L80.0347 80.3196ZM77.7449 82V72.5455H80.2932V82H77.7449ZM82.1214 82L80.4964 79.1932L82.1583 77.3835L85.039 82H82.1214ZM85.6287 82V74.9091H88.177V82H85.6287ZM86.9029 74.1705C86.5582 74.1705 86.2627 74.0566 86.0165 73.8288C85.7703 73.6011 85.6472 73.3272 85.6472 73.0071C85.6472 72.687 85.7703 72.4131 86.0165 72.1854C86.2627 71.9576 86.5582 71.8438 86.9029 71.8438C87.2507 71.8438 87.5461 71.9576 87.7892 72.1854C88.0355 72.4131 88.1586 72.687 88.1586 73.0071C88.1586 73.3272 88.0355 73.6011 87.7892 73.8288C87.5461 74.0566 87.2507 74.1705 86.9029 74.1705ZM92.0237 78.0114V82H89.4754V74.9091H91.8944V76.2571H91.9683C92.1222 75.8078 92.393 75.4554 92.7808 75.1999C93.1717 74.9445 93.6272 74.8168 94.1473 74.8168C94.6489 74.8168 95.0844 74.9322 95.4537 75.163C95.8261 75.3907 96.1139 75.7047 96.317 76.1048C96.5232 76.5049 96.6248 76.9619 96.6217 77.4759V82H94.0734V78.0114C94.0765 77.6605 93.9872 77.3851 93.8057 77.185C93.6272 76.985 93.3779 76.8849 93.0578 76.8849C92.8485 76.8849 92.6654 76.9311 92.5084 77.0234C92.3546 77.1127 92.2361 77.242 92.153 77.4112C92.0699 77.5774 92.0268 77.7775 92.0237 78.0114ZM101.296 84.8068C100.585 84.8068 99.9756 84.7053 99.4678 84.5021C98.963 84.3021 98.5706 84.0251 98.2906 83.6712C98.0136 83.3203 97.8582 82.9171 97.8243 82.4616H100.28C100.305 82.6125 100.366 82.734 100.465 82.8263C100.563 82.9187 100.69 82.9848 100.843 83.0249C101 83.0679 101.176 83.0895 101.37 83.0895C101.699 83.0895 101.971 83.0095 102.187 82.8494C102.405 82.6894 102.515 82.4001 102.515 81.9815V80.7812H102.441C102.348 81.0213 102.207 81.226 102.016 81.3952C101.825 81.5614 101.596 81.6892 101.328 81.7784C101.06 81.8646 100.767 81.9077 100.446 81.9077C99.9417 81.9077 99.477 81.7907 99.0523 81.5568C98.6307 81.3229 98.2921 80.9521 98.0367 80.4442C97.7843 79.9364 97.6581 79.2732 97.6581 78.4545C97.6581 77.599 97.7905 76.9034 98.0551 76.3679C98.3229 75.8324 98.6676 75.44 99.0892 75.1907C99.5139 74.9414 99.9602 74.8168 100.428 74.8168C100.779 74.8168 101.087 74.8783 101.351 75.0014C101.616 75.1214 101.838 75.283 102.016 75.4862C102.195 75.6862 102.33 75.9062 102.422 76.1463H102.478V74.9091H105.026V81.9815C105.026 82.5817 104.871 83.091 104.56 83.5096C104.252 83.9312 103.818 84.2528 103.258 84.4744C102.698 84.696 102.044 84.8068 101.296 84.8068ZM101.388 80.098C101.622 80.098 101.822 80.0334 101.988 79.9041C102.158 79.7718 102.287 79.584 102.376 79.3409C102.468 79.0947 102.515 78.7992 102.515 78.4545C102.515 78.1037 102.468 77.8036 102.376 77.5543C102.287 77.302 102.158 77.1096 101.988 76.9773C101.822 76.8419 101.622 76.7741 101.388 76.7741C101.154 76.7741 100.954 76.8419 100.788 76.9773C100.625 77.1096 100.499 77.302 100.41 77.5543C100.323 77.8036 100.28 78.1037 100.28 78.4545C100.28 78.8054 100.323 79.1039 100.41 79.3501C100.499 79.5933 100.625 79.7795 100.788 79.9087C100.954 80.0349 101.154 80.098 101.388 80.098Z" fill="#686868"/>
</svg>
